<?xml version="1.0" encoding="UTF-8" standalone="no"?>
<!-- Created with Inkscape (http://www.inkscape.org/) -->

<svg
   width="120"
   height="120"
   viewBox="0 0 120 120"
   version="1.1"
   id="svg1"
   inkscape:version="1.3.2 (091e20ef0f, 2023-11-25)"
   sodipodi:docname="grass.svg"
   xmlns:inkscape="http://www.inkscape.org/namespaces/inkscape"
   xmlns:sodipodi="http://sodipodi.sourceforge.net/DTD/sodipodi-0.dtd"
   xmlns="http://www.w3.org/2000/svg"
   xmlns:svg="http://www.w3.org/2000/svg">
  <sodipodi:namedview
     id="namedview1"
     pagecolor="#ffffff"
     bordercolor="#000000"
     borderopacity="0.25"
     inkscape:showpageshadow="2"
     inkscape:pageopacity="0.0"
     inkscape:pagecheckerboard="0"
     inkscape:deskcolor="#d1d1d1"
     inkscape:document-units="px"
     inkscape:zoom="6.7083333"
     inkscape:cx="59.925466"
     inkscape:cy="60"
     inkscape:window-width="1920"
     inkscape:window-height="1011"
     inkscape:window-x="0"
     inkscape:window-y="0"
     inkscape:window-maximized="1"
     inkscape:current-layer="layer1" />
  <defs
     id="defs1" />
  <g
     inkscape:label="Layer 1"
     inkscape:groupmode="layer"
     id="layer1">
    <path
       style="fill:#008000;stroke-width:1.00157"
       id="path1"
       d="m 111.619,30.363041 c -0.20528,-0.190441 -0.4046,-0.387519 -0.61584,-0.571323 -0.73749,-0.641701 -1.32027,-1.065438 -2.13591,-1.66959 -1.56842,-1.161739 -3.16512,-2.284517 -4.75384,-3.418121 -2.26609,-1.59221 -4.488449,-3.24773 -6.776677,-4.808508 -1.30908,-0.89291 -1.573338,-1.041431 -2.895215,-1.870493 C 89.475403,14.80999 84.273571,12.063069 79.070892,9.2903181 78.273666,8.8654389 77.029401,8.1931536 76.213654,7.802628 75.726544,7.5694323 75.228405,7.360014 74.73578,7.138707 73.317733,6.5130757 71.868118,5.9398313 70.335303,5.6646426 69.566214,5.5265669 67.920189,5.3833547 67.157827,5.3581053 c -0.58002,-0.01921 -1.160674,0.0027 -1.741011,0.00406 -3.778866,0.01102 -7.523626,0.5890893 -11.239403,1.2232621 -2.400141,0.4691249 -4.822728,0.8911104 -7.167914,1.5999803 -0.36773,0.1111521 -0.729189,0.2420801 -1.093784,0.3631201 -1.417279,0.5751808 -2.733509,1.3220416 -3.88682,2.3322792 -0.680247,0.595857 -1.34406,1.306597 -1.971966,1.952762 -1.008902,0.986794 -1.958859,2.032589 -2.872287,3.10784 -0.4283,0.504178 -1.098614,1.31364 -1.478922,1.868903 -0.210732,0.307676 -0.392134,0.634445 -0.5882,0.951667 -0.494448,0.860038 -1.011034,1.717366 -1.423873,2.621441 -0.142163,0.31132 -0.25875,0.633702 -0.390353,0.949632 -0.447388,1.074018 -0.387065,0.921652 -0.858299,1.983365 -0.483509,1.261836 -1.157852,2.440827 -1.597145,3.720724 -0.02373,0.06915 -0.626392,2.057588 -0.641389,2.107013 -0.431188,1.343163 -0.863117,2.687252 -1.160356,4.068179 -0.07102,0.329936 -0.361189,1.968055 -0.418028,2.285573 -0.208717,1.343035 -0.406511,2.695817 -0.361848,4.060167 0.04508,1.376983 0.262673,2.705865 0.414054,4.073689 0.08005,0.723306 0.145255,1.448175 0.217882,2.172264 0.16483,3.764834 0.04289,0.167487 0.06407,3.439771 0.01033,1.596292 0.07828,1.288456 0.03537,2.858396 -0.02829,1.035066 -0.09654,1.607618 -0.189919,2.634793 -0.04349,1.749775 -0.437574,3.45614 -0.773913,5.164502 -0.0803,0.407873 -0.26446,1.451469 -0.341981,1.886662 -0.03906,0.268502 -0.09693,0.534934 -0.117169,0.805507 -0.02032,0.271701 -0.0073,1.556925 -0.0041,1.824491 0.01057,0.884953 0.02749,1.767788 0.06782,2.651854 0.0407,0.912973 0.163764,1.817173 0.372998,2.706784 0.08992,0.382328 0.210206,0.757137 0.298439,1.139858 0.214061,0.928518 0.236615,1.221846 0.36789,2.144907 0.178572,1.83826 0.669803,3.619519 1.027557,5.42464 0.251942,1.150805 0.322228,2.348851 0.653124,3.482932 0.07339,0.251536 0.169113,0.496012 0.253669,0.744018 0.609398,1.593161 0.939312,3.262654 1.253641,4.932099 0.378837,1.710286 0.803545,3.410509 1.208356,5.115031 0.125378,0.473076 0.267355,1.081345 0.463864,1.532984 0.551681,1.267938 1.459513,2.417082 2.295339,3.506365 0.355107,0.348845 0.692499,0.716691 1.06532,1.046538 0.582681,0.515512 1.787779,1.431322 2.467766,1.831052 5.238161,3.07926 9.811543,6.02573 15.097663,8.48523 1.161172,0.5072 2.348028,0.95871 3.552294,1.35311 0.442525,0.14493 1.52087,0.48308 2.008869,0.54445 0.3255,0.0409 0.655982,0.0138 0.983973,0.0207 1.09883,-0.0247 2.176216,-0.25211 3.261857,-0.3937 0.387365,-0.0505 0.77716,-0.0807 1.164911,-0.12814 0.746668,-0.0914 1.531174,-0.2115 2.275415,-0.32107 0.395346,-0.0799 0.789465,-0.16623 1.186037,-0.23985 0.41669,-0.0774 0.834214,-0.15096 1.253453,-0.21303 0.538605,-0.0798 1.909884,-0.22419 2.454192,-0.32393 0.419413,-0.0768 0.831649,-0.18871 1.247474,-0.28307 0.448082,-0.0779 0.896163,-0.15573 1.344244,-0.23359 2.262093,-0.3352 4.550469,-0.41358 6.831608,-0.29697 1.873839,-0.61053 3.700541,-1.35075 5.500882,-2.14958 0.343164,-0.16663 0.691489,-0.32304 1.029493,-0.49991 0.725498,-0.37964 1.432226,-0.79414 2.146167,-1.19509 0.71819,-0.40333 1.372387,-0.76559 2.052182,-1.23241 0.348155,-0.23907 0.678991,-0.50245 1.018486,-0.75367 1.040765,-0.76337 2.113061,-1.47369 3.219316,-2.13738 0.301953,-0.18116 0.618177,-0.33988 0.908071,-0.53976 0.750581,-0.51753 0.848726,-0.70309 1.465561,-1.377697 1.079716,-1.16464 2.120056,-2.373146 2.957136,-3.725922 0.73755,-1.578775 1.31855,-3.224345 1.93782,-4.851499 0.1163,-0.319757 0.24303,-0.635913 0.3489,-0.959275 0.11643,-0.355627 0.20798,-0.718959 0.31769,-1.076718 0.29718,-0.969121 0.65055,-1.925118 0.91177,-2.905068 0.0744,-0.278975 0.13014,-0.562576 0.19522,-0.843864 0.26132,-1.073768 0.40911,-2.168228 0.5834,-3.257762 0.0148,-0.09202 0.0393,-0.182987 0.0444,-0.27605 0.024,-0.446763 -0.0952,-0.927672 -0.17167,-1.362527 -0.22413,-1.273894 -0.035,-0.09164 -0.23875,-1.416774 -0.0222,-0.224537 -0.0459,-0.448938 -0.0667,-0.673614 -0.0194,-0.20977 -0.0211,-0.421609 -0.054,-0.629694 -0.15194,-0.96122 -0.51937,-1.88187 -0.87838,-2.779653 -0.50865,-1.074399 -1.03697,-2.142267 -1.72923,-3.111528 -0.36473,-0.584005 -0.89888,-1.028833 -1.42037,-1.467228 -4.939714,2.913743 -8.344651,-6.56414 -13.367424,-7.500695 -0.193098,-0.036 -0.389712,-0.0501 -0.583638,-0.08134 -0.640767,-0.103233 -1.273798,-0.212376 -1.918729,-0.290037 -0.593331,-0.06314 -1.194244,-0.103288 -1.784139,-0.196266 -0.789257,-0.124402 -0.22545,-0.10278 -1.061578,-0.17691 -0.235103,-0.02084 -0.471299,-0.02662 -0.706948,-0.03994 -1.236704,0.01409 -2.464988,-0.171068 -3.701456,-0.155724 -0.957945,0.01189 -1.012303,0.05033 -1.990744,0.180726 -1.110996,0.126269 -2.23226,0.142087 -3.344222,0.254395 -0.994573,0.100451 -1.979731,0.296079 -2.968472,0.440262 -0.307448,0.05218 -0.616152,0.09744 -0.922344,0.156549 -0.300476,0.058 -0.596728,0.136609 -0.897188,0.194696 -1.061457,0.20521 -2.134067,0.358585 -3.210762,0.450884 -0.982582,0.119116 -1.971889,0.153787 -2.960719,0.140902 -0.640563,0.01686 -1.279703,-0.02704 -1.919079,-0.05513 -0.521892,-0.01274 -1.042424,0.011 -1.563887,0.02151 -0.612865,-0.0014 -1.225653,0.0092 -1.838308,-0.01052 -0.08849,-0.0041 -0.178102,-0.02706 -0.265478,-0.01245 -0.608563,0.101802 -1.016879,0.698473 -1.312292,1.179295 -0.292656,0.571361 -0.39028,1.216906 -0.442668,1.850268 -0.0089,0.555391 -0.07423,1.107273 -0.08972,1.662301 -0.03728,0.773354 0.01773,1.546985 0.09757,2.315789 0.05419,1.174462 0.02818,2.350178 0.07875,3.525074 0.0808,1.298849 0.129936,2.599874 0.122969,3.901275 0.0142,1.135126 -0.03023,2.268054 -0.08051,3.401833 -0.03679,0.867998 -0.01709,1.736366 -0.05698,2.60425 -0.0056,0.433726 -0.04358,0.865842 -0.06259,1.299099 0,0 13.123895,6.687079 13.123895,6.687079 v 0 c -0.01902,-0.454335 -0.05615,-0.907668 -0.06224,-1.362432 -0.03855,-0.887221 -0.01985,-1.774815 -0.05549,-2.662135 -0.0498,-1.169455 -0.09506,-2.338228 -0.09935,-3.508762 -0.03168,-1.301925 -0.02423,-2.603814 -0.0482,-3.905937 -0.03335,-1.140669 -0.06536,-2.283331 0.0032,-3.423375 0.08444,-0.708503 0.131377,-1.420743 0.13831,-2.134492 0.02682,-0.546115 0.04056,-1.093083 0.132954,-1.633559 -0.0022,-0.378662 -0.03574,-0.776338 0.09214,-1.139095 0.03744,-0.04492 0.05819,-0.09276 0.128913,-0.08827 0.02492,0.0016 0.04389,0.02398 0.06686,0.03375 0.171894,0.07308 0.328972,0.115509 0.519095,0.07765 0.602647,-0.0212 1.20555,-0.0079 1.808435,-0.0093 0.544064,0.01156 1.087272,0.03717 1.631742,0.02841 0.613283,-0.02777 1.225806,-0.07545 1.838964,-0.106711 0.9029,-0.115602 1.789914,-0.308271 2.677255,-0.509619 1.583832,-0.355346 3.166405,-0.715531 4.763644,-1.006403 1.998538,-0.355719 4.018212,-0.64093 6.04997,-0.6929 1.968547,0.05231 3.956977,0.05218 5.89392,0.449382 0.18764,0.04039 1.295478,0.28337 1.536984,0.319403 0.715646,0.106772 1.452597,0.06934 2.162845,0.226223 0.830238,0.160114 1.647831,0.335375 2.40912,0.717988 0.16723,0.08405 0.65049,0.37058 0.48844,0.276933 -4.025054,-2.326075 -8.051651,-4.649484 -12.077478,-6.974226 0.107807,0.04332 0.219024,0.07897 0.323421,0.129961 0.27738,0.135489 0.264291,0.169568 0.510275,0.346892 0.271996,0.196075 0.544796,0.387814 0.800149,0.607001 0.379318,0.372605 0.799289,0.723277 1.139959,1.132606 0.440864,0.529717 0.789824,1.135742 1.110114,1.742643 0.580925,1.160556 1.043451,2.391546 1.182486,3.690491 0.05458,0.738931 0.05882,0.556539 0.04623,1.259275 -0.0066,0.368472 -0.07364,0.752474 -0.05289,1.12078 0.0057,0.101657 0.02872,0.201601 0.04309,0.302402 0.136142,1.11414 0.174595,2.240308 0.09685,3.36083 -0.09802,0.903959 -0.195097,1.805052 -0.416095,2.689761 -0.24886,0.996247 -0.310611,1.045449 -0.694295,1.996942 -0.123077,0.305217 -0.245141,0.610842 -0.367712,0.916263 -0.65975,1.527447 -1.317699,3.069642 -2.261577,4.4484 -0.677684,1.286754 -1.366388,2.583545 -2.364247,3.657976 -1.800984,1.680388 0.442713,-0.40293 -1.3281,1.209859 -0.680592,0.619857 -0.78761,0.778292 -1.563741,1.360637 -0.347517,0.260748 -0.709495,0.501882 -1.07172,0.741779 -0.371434,0.245995 -0.752539,0.477065 -1.128809,0.715598 -0.37374,0.216975 -0.750125,0.429458 -1.12122,0.650926 -0.997905,0.595546 -1.964673,1.245865 -3.011231,1.757026 -0.365676,0.178604 -0.742627,0.333262 -1.117121,0.492553 -0.351016,0.149305 -0.706139,0.288766 -1.059209,0.433149 -0.99275,0.379515 -1.984736,0.749625 -3.008746,1.038335 -0.606955,0.17113 -1.220569,0.32708 -1.849934,0.39217 -0.269551,0.0279 -0.541673,0.0182 -0.81251,0.0273 -2.038388,0.38563 -4.100037,0.62737 -6.14824,0.95381 -0.474602,0.0657 -0.948484,0.13691 -1.423806,0.19722 -0.461898,0.0586 -0.926477,0.0956 -1.387664,0.15954 -1.647663,0.22852 -3.274468,0.61685 -4.939069,0.72525 -2.2183,0.29581 -4.460188,0.70228 -6.702065,0.41691 -0.799643,-0.16839 -0.975164,-0.1912 -1.741771,-0.40508 -1.41497,-0.39477 -2.784597,-0.93334 -4.116032,-1.55176 -4.191655,-2.034609 -10.036094,-5.634408 7.576725,4.58297 0.419259,0.24321 -0.843818,-0.47835 -1.250489,-0.74208 -0.375667,-0.24362 -0.74192,-0.50271 -1.09452,-0.77866 -0.295059,-0.23092 -0.564022,-0.49337 -0.846033,-0.74006 -0.216554,-0.26072 -0.443063,-0.51349 -0.649661,-0.78217 -0.849647,-1.10495 -1.605657,-2.30181 -2.068319,-3.622076 -0.510843,-1.6469 -0.890506,-3.32898 -1.229258,-5.018844 -0.356989,-1.663498 -0.688047,-3.331769 -1.10111,-4.982815 -0.05057,-0.225193 -0.09245,-0.452514 -0.151708,-0.675579 -0.175017,-0.658821 -0.415506,-1.30017 -0.579718,-1.962721 -0.0633,-0.255415 -0.107253,-0.515284 -0.166503,-0.77167 -0.0625,-0.270456 -0.132478,-0.53913 -0.198716,-0.808695 -0.138269,-0.585005 -0.265602,-1.172652 -0.412011,-1.755673 -0.311222,-1.239332 -0.658436,-2.470959 -0.890628,-3.729141 -0.137493,-0.711957 -0.29336,-1.468143 -0.392254,-2.186736 -0.04674,-0.339597 -0.06828,-0.682235 -0.109393,-1.022559 -0.102002,-0.844432 -0.269424,-1.678241 -0.355263,-2.524724 -0.06194,-0.863627 -0.136904,-1.729414 -0.146599,-2.595754 -0.01208,-1.079898 0.02643,-0.64579 0.04634,-1.698202 0.0053,-0.279009 -0.0019,-0.558115 -0.0028,-0.837172 0.01293,-2.45238 0.132,-4.913241 0.611255,-7.324518 0.03401,-0.460234 0.08118,-0.919683 0.10203,-1.3807 0.0675,-1.492574 0.04233,-3.027211 -0.188861,-4.50595 -0.09066,-0.579848 -0.24962,-1.147215 -0.352894,-1.724949 -0.118066,-0.660474 -0.207297,-1.325778 -0.310945,-1.988667 -0.0473,-0.695581 -0.127399,-1.389706 -0.141886,-2.086743 -0.05108,-2.457657 0.410195,-4.895713 0.863253,-7.299059 0.232536,-1.05906 0.492614,-2.110166 0.768141,-3.158955 0.08728,-0.332219 0.189487,-0.660433 0.274712,-0.993185 0.08438,-0.329442 0.147938,-0.664023 0.233998,-0.993028 0.08999,-0.344041 0.196005,-0.683691 0.294007,-1.025536 0.119595,-0.337713 0.231081,-0.678409 0.358786,-1.013139 0.121814,-0.319289 0.259696,-0.632214 0.389544,-0.94832 0.117705,-0.298369 0.239064,-0.595321 0.353115,-0.895106 0.238911,-0.62798 0.440204,-1.234046 0.690416,-1.858501 0.131653,-0.328567 0.276675,-0.651619 0.415012,-0.977429 0.428583,-0.981898 0.40203,-0.965798 0.896105,-1.918379 0.155663,-0.300121 0.332085,-0.589378 0.482099,-0.892362 0.424427,-0.857218 0.74973,-1.763607 1.202545,-2.607855 0.537327,-0.953956 1.074377,-1.909352 1.701724,-2.808537 0.768562,-1.101588 1.659378,-2.10079 2.64094,-3.017516 0.362835,-0.297169 0.714874,-0.608033 1.088506,-0.891509 1.479873,-1.122786 3.132677,-2.017159 4.854305,-2.705911 2.399839,-0.956052 4.879968,-1.712716 7.396366,-2.295081 1.177813,-0.240183 2.260266,-0.477981 3.452411,-0.650351 2.513834,-0.363473 5.065268,-0.459928 7.601078,-0.348236 1.359768,0.118559 2.154561,0.151361 3.482918,0.404483 1.974902,0.376323 3.874993,1.062816 5.695906,1.903706 0.487077,0.237852 0.977413,0.469143 1.461231,0.713556 4.432639,2.239261 15.020169,8.292228 -3.838719,-2.508331 1.356044,0.791099 1.855282,1.065486 3.197755,1.919313 2.315447,1.472648 4.552475,3.064279 6.719499,4.747261 1.374469,0.994555 2.804736,1.945883 4.090299,3.057008 0.267031,0.230798 0.508012,0.490135 0.764458,0.732639 0.807727,0.763811 0.253494,0.212202 0.821579,0.786395 z" />
  </g>
</svg>
