<?xml version="1.0" encoding="UTF-8" standalone="no"?>
<!-- Created with Inkscape (http://www.inkscape.org/) -->

<svg
   width="120"
   height="120"
   viewBox="0 0 120 120"
   version="1.1"
   id="svg1"
   inkscape:version="1.3.2 (091e20ef0f, 2023-11-25)"
   sodipodi:docname="rabbit.svg"
   xmlns:inkscape="http://www.inkscape.org/namespaces/inkscape"
   xmlns:sodipodi="http://sodipodi.sourceforge.net/DTD/sodipodi-0.dtd"
   xmlns:xlink="http://www.w3.org/1999/xlink"
   xmlns="http://www.w3.org/2000/svg"
   xmlns:svg="http://www.w3.org/2000/svg">
  <sodipodi:namedview
     id="namedview1"
     pagecolor="#ffffff"
     bordercolor="#000000"
     borderopacity="0.25"
     inkscape:showpageshadow="2"
     inkscape:pageopacity="0.0"
     inkscape:pagecheckerboard="0"
     inkscape:deskcolor="#d1d1d1"
     inkscape:document-units="px"
     inkscape:zoom="6.7083333"
     inkscape:cx="60"
     inkscape:cy="61.192547"
     inkscape:window-width="1920"
     inkscape:window-height="1011"
     inkscape:window-x="0"
     inkscape:window-y="0"
     inkscape:window-maximized="1"
     inkscape:current-layer="layer1" />
  <defs
     id="defs1" />
  <g
     inkscape:label="Layer 1"
     inkscape:groupmode="layer"
     id="layer1">
    <path
       style="fill:#b3b3b3;stroke-width:1.00157"
       id="path1"
       d="m 19.75263,9.939935 c 0.380029,1.034327 0.460708,2.145832 0.586352,3.230211 0.07459,0.643768 0.140823,1.288523 0.22068,1.931659 0.617828,4.97571 0.06079,-0.03306 0.642576,5.441344 0.06115,0.998151 0.106959,1.99736 0.183439,2.994453 0.0824,1.074356 0.213698,2.144637 0.293164,3.219215 0.219523,2.968484 0.276309,5.94642 0.442828,8.917505 0.05409,0.965016 0.133145,1.92847 0.199717,2.892705 0.03003,0.937223 0.07797,1.874042 0.09008,2.811667 0.01135,0.878193 -0.04437,1.756806 -0.0197,2.634725 0.02671,0.95036 0.122906,1.897534 0.17376,2.846908 0.05091,0.950501 0.102473,1.901139 0.131542,2.852558 0.08388,2.745273 0.05566,2.325846 -0.0867,4.882924 -0.03567,0.655717 -0.09522,1.31057 -0.107002,1.96715 -0.0034,0.190448 0.07596,4.429901 0.07577,4.476636 -0.0095,2.312138 -0.225463,4.604561 -0.40852,6.907059 -0.03706,2.162947 -0.300687,4.314334 -0.362457,6.475927 -0.02087,0.730435 0.0075,1.461628 -0.0087,2.192183 -0.02292,1.035219 -0.133019,2.961001 -0.189013,4.013561 -0.02234,0.627084 -0.05458,1.253893 -0.06701,1.881252 -0.0126,0.636201 0.0065,1.2728 -0.0081,1.908959 -0.07026,3.072801 -0.07551,0.478176 -0.152957,3.409209 -0.0273,1.033252 -0.01289,2.067187 -0.02196,3.100759 -0.002,2.281677 -0.05923,4.564062 0.13533,6.83957 0.117408,1.271274 0.0069,2.545936 0.0886,3.818336 0.257621,1.27366 0.50051,2.54974 0.715114,3.83172 0.03672,0.24595 0.0754,0.49161 0.110171,0.73785 0.09195,0.65112 0.126566,0.86281 0.155218,1.51439 0.02663,0.60553 -0.009,1.20741 -0.03712,1.81192 -0.01504,0.14734 -0.03007,0.29468 -0.04511,0.44203 0,0 12.818875,6.49022 12.818875,6.49022 v 0 c -0.0232,-0.17137 -0.04641,-0.34274 -0.06961,-0.5141 -0.07125,-0.66743 -0.158452,-1.33282 -0.216886,-2.00161 -0.122305,-1.39981 -0.0038,-0.15675 -0.102061,-1.55629 -0.01739,-0.24756 -0.04313,-0.49446 -0.06469,-0.74169 -0.124985,-1.22352 -0.225464,-2.45091 -0.414874,-3.66651 -0.103031,-0.55431 -0.188332,-1.1125 -0.292572,-1.66628 -0.155436,-0.82576 -0.371196,-1.64072 -0.476078,-2.47607 -0.153279,-1.04339 -0.340652,-2.08283 -0.472607,-3.12922 -0.167839,-1.33094 -0.31004,-2.665864 -0.464283,-3.998474 -0.210222,-2.447631 -0.07399,-0.650607 -0.215676,-3.17732 -0.08113,-1.446759 -0.149237,-2.089787 -0.172657,-3.557702 -0.01013,-0.634849 0.01317,-1.269864 0.008,-1.904773 -0.0052,-0.643461 -0.02609,-1.286699 -0.03914,-1.930049 -0.0365,-1.258593 -0.09738,-2.880386 -0.07636,-4.134305 0.01196,-0.71337 0.07075,-1.425321 0.08915,-2.138553 0.05633,-2.182966 -0.02119,-4.370374 0.162107,-6.549582 0.0018,-0.06115 0.137365,-4.595683 0.137989,-4.60737 0.04214,-0.78907 0.11111,-1.576566 0.181024,-2.363661 0.131948,-1.485457 0.36567,-2.894464 0.295195,-4.391868 -0.03438,-0.730473 -0.17895,-1.451575 -0.268425,-2.177362 -0.385611,-2.48857 -0.4648,-2.617055 -0.611687,-5.213804 -0.247755,-4.379957 0.05171,-1.26252 -0.105186,-5.588228 -0.03333,-0.918903 -0.125371,-1.834757 -0.180725,-2.752597 -0.05765,-0.955931 -0.105523,-1.912426 -0.158285,-2.868639 -0.05464,-0.963996 -0.0831,-1.929834 -0.163913,-2.89199 -0.08188,-0.974827 -0.22372,-1.943734 -0.323969,-2.916843 -0.181871,-1.765417 -0.433911,-4.386458 -0.495405,-6.155591 -0.03528,-1.014845 -0.01553,-2.030928 -0.0086,-3.046362 0.0065,-0.951262 0.03249,-1.90229 0.04873,-2.853436 0.315713,-2.815775 0.164614,-2.130537 0.709724,-4.689754 0.11379,-0.53423 0.232474,-1.067668 0.36855,-1.596661 0.214234,-0.832832 0.41915,-1.664574 1.062088,-2.274861 z" />
    <path
       style="fill:#b3b3b3;stroke-width:1.00157"
       id="path2"
       d="m 38.483192,30.331091 c 0.219129,-0.572463 0.120572,-0.388359 0.48116,-0.972978 0.141241,-0.228994 0.272865,-0.465141 0.434565,-0.680177 0.638194,-0.848697 1.467158,-1.504628 2.272472,-2.183574 1.301161,-0.972425 2.682974,-1.855744 4.176282,-2.505643 0.875999,-0.381241 1.265229,-0.476863 2.167715,-0.758922 1.200638,-0.393368 2.395021,-0.801297 3.634649,-1.058511 0.482129,-0.100038 0.971294,-0.162725 1.455677,-0.251202 0.53145,-0.09708 1.056507,-0.23167 1.591691,-0.305431 0.601349,-0.08288 1.209139,-0.109274 1.813708,-0.163911 1.008543,-0.0219 2.915809,-0.08081 3.910558,-0.02984 2.131268,0.109195 4.282201,0.470174 6.332398,1.063164 0.661472,0.191321 1.305152,0.439513 1.957728,0.65927 1.671419,0.702629 2.028204,0.803712 3.596357,1.648265 0.498639,0.26855 1.960569,1.134984 1.467862,0.8557 -23.65879,-13.410656 -11.751036,-7.128484 -9.040593,-5.026945 0.278225,0.215722 0.537942,0.454312 0.806912,0.681468 0.278794,0.290707 0.577764,0.563326 0.83638,0.872121 1.093151,1.305254 1.946352,3.005583 2.542745,4.591864 0.154283,0.410359 0.279008,0.831232 0.418512,1.246848 0.498023,1.665537 0.556704,3.28103 0.09802,4.960945 -0.112724,0.412852 -0.228517,0.828093 -0.401853,1.219384 -0.184226,0.415872 -0.443949,0.794018 -0.665924,1.191027 -0.301285,0.375931 -0.576126,0.774677 -0.903854,1.127792 -0.34284,0.369397 -0.724628,0.701161 -1.102797,1.034298 -1.153449,1.016098 -1.573742,1.344807 -2.9412,2.132565 -1.283014,0.739112 -2.200805,1.113707 -3.546282,1.721115 -1.760382,0.722788 -1.79674,0.791879 -3.612554,1.32429 -0.602423,0.176635 -1.206161,0.353876 -1.821097,0.480232 -1.019225,0.209429 -2.760667,0.400874 -3.799795,0.430009 -0.673678,0.01889 -1.347656,-0.02495 -2.021484,-0.03742 -4.20534,-0.307285 -8.309387,-1.345536 -12.373326,-2.416533 -1.469635,-0.411558 -2.955107,-0.769778 -4.420311,-1.197503 -0.870588,-0.254143 -1.729345,-0.551969 -2.594496,-0.824019 -0.538674,-0.16238 -1.094972,-0.325061 -1.575085,-0.625314 -0.05276,-0.033 -0.115044,-0.05442 -0.158009,-0.09945 -0.03483,-0.0365 -0.0444,-0.09061 -0.0666,-0.13591 4.252529,2.442122 8.522814,4.85358 12.757586,7.326364 0.03202,0.0187 -0.04489,0.07303 -0.0819,0.07527 -0.02519,0.0015 -0.01076,-0.0556 -0.03254,-0.06835 -4.291228,-2.512349 -8.588057,-5.015209 -12.895128,-7.500298 -0.07246,-0.04181 -0.165151,0.02913 -0.245235,0.05331 -0.05904,0.01259 -0.116849,0.04136 -0.177107,0.03777 -0.05402,-0.0032 -0.100171,-0.04139 -0.151888,-0.05733 -0.461031,-0.142024 -0.906439,-0.320332 -1.369491,-0.457298 0,0 11.381809,8.856952 11.381809,8.856952 v 0 c 0.556551,0.217241 1.125123,0.43242 1.70111,0.593255 0.09184,0.02565 0.191229,0.02421 0.27979,0.05956 0.05204,0.02077 0.08771,0.06974 0.131563,0.10461 0.02876,0.0408 0.05521,0.08333 0.08627,0.122405 0.02363,0.02972 0.110314,0.102558 0.07746,0.08353 -4.265998,-2.470808 -8.525715,-4.952471 -12.78119,-7.441357 -0.01873,-0.01095 0.05503,-0.01522 0.06497,0.0041 0.02418,0.04692 -0.02735,0.130628 0.0182,0.157306 4.278165,2.505826 8.598657,4.938677 12.897985,7.408016 0.421606,-0.134755 0.914584,0.05402 1.339707,0.07386 1.837714,0.313227 3.684175,0.557334 5.525655,0.846841 4.05507,0.764984 8.076762,1.805511 12.219098,1.985489 1.547951,0.01484 2.766866,0.08429 4.305841,-0.128739 0.631679,-0.08744 1.249339,-0.257408 1.869948,-0.404068 0.66462,-0.157061 1.335648,-0.29566 1.985072,-0.506936 0.521576,-0.169683 3.113089,-1.292497 3.572923,-1.489246 1.817339,-0.907269 3.615013,-1.844146 5.389122,-2.834075 0.597582,-0.333442 1.223953,-0.622884 1.783161,-1.017313 0.902303,-0.636428 1.628855,-1.544549 2.353864,-2.358441 0.640711,-0.944543 1.163793,-1.574723 1.537187,-2.665438 0.149681,-0.43723 0.21591,-0.900093 0.281326,-1.35758 0.202486,-1.416085 0.142405,-2.847406 -0.163561,-4.243391 C 80.963361,33.112254 80.846302,32.663042 80.700215,32.22294 80.555,31.785464 80.387725,31.355535 80.221502,30.925603 79.606896,29.33594 78.895534,27.770553 77.898246,26.380039 77.242964,25.694378 76.875456,25.221277 76.036468,24.723694 72.010494,22.335989 67.950758,20.005254 63.880691,17.693511 63.476613,17.464 63.045108,17.285731 62.618147,17.102268 61.336948,16.551742 60.705971,16.365742 59.350185,15.899555 58.6708,15.703987 57.999846,15.476309 57.312028,15.312853 55.993411,14.99949 54.535338,14.818224 53.19097,14.679897 c -0.826423,-0.08503 -3.7395,-0.320438 -4.548842,-0.338132 -0.661977,-0.01447 -1.323794,0.0355 -1.985692,0.05324 -0.328584,0.01669 -3.624024,0.179518 -3.968359,0.214858 -0.521768,0.05355 -1.036645,0.160838 -1.553838,0.248136 -1.408312,0.237713 -2.826684,0.471177 -4.188164,0.91486 -0.348365,0.149887 -0.700853,0.290535 -1.045096,0.449662 -1.909301,0.882578 -3.681977,2.019011 -5.414283,3.204757 -0.346791,0.237385 -0.698636,0.467552 -1.040374,0.712156 -0.322321,0.230707 -1.456997,1.103027 -1.797071,1.351932 -0.253054,0.185214 -0.514585,0.358634 -0.768203,0.543076 -0.181135,0.131729 -0.349467,0.281188 -0.535893,0.405315 -0.143735,0.0957 -0.301512,0.168416 -0.452267,0.252624 z" />
    <use
       x="0"
       y="0"
       xlink:href="#path2"
       id="use2" />
    <path
       style="fill:#b3b3b3;stroke-width:1.00157"
       id="path3"
       d="m 22.891223,39.972378 c 0.277011,0.200427 0.565036,0.386451 0.831032,0.601281 0.667026,0.538719 1.50587,1.341882 2.086424,1.950996 1.177743,1.235682 1.639654,1.758962 2.605431,3.183659 0.378234,0.557963 0.71026,1.14589 1.06539,1.718835 0.324581,0.576806 0.652297,1.151859 0.973742,1.730418 0.339313,0.610719 0.682683,1.219345 1.008502,1.837368 0.803174,1.523487 1.057624,2.188543 1.912363,3.704683 0.724081,1.284377 2.080331,3.449807 2.836438,4.67382 0.523621,0.828631 1.045009,1.658676 1.570861,2.485893 1.319662,2.075959 1.64767,2.508179 2.822625,4.561098 3.262835,5.70093 -0.92813,-1.536212 1.586376,3.035777 0.367732,0.668627 0.772547,1.316178 1.158821,1.974267 1.100359,2.384325 1.873327,4.907765 2.567926,7.435257 0.399316,1.453024 0.84961,3.452475 1.223901,4.923914 0.18658,0.733494 0.388388,1.463031 0.582582,2.194547 0.899598,2.243975 0.909621,2.375125 1.959482,4.565246 0.361871,0.754902 0.707887,1.519588 1.125378,2.245212 0.528237,0.918106 1.14314,1.783571 1.708104,2.679545 1.845986,2.927541 1.347902,2.124979 2.96934,4.929226 0.89404,1.5153 1.693787,3.08201 2.518472,4.63492 0.244191,0.45982 0.589443,1.12793 0.923656,1.55353 0.153374,0.19532 0.340331,0.36176 0.510496,0.54263 3.910893,2.28484 8.790702,7.53808 14.185628,7.16645 0.258021,-0.0178 0.513291,-0.064 0.769875,-0.0965 1.06866,-0.13532 0.561174,-0.0552 1.642416,-0.26636 0.294831,-0.0656 0.59169,-0.12276 0.884493,-0.19692 0.319206,-0.0808 0.63272,-0.18286 0.950827,-0.26793 0.534336,-0.1429 1.539757,-0.37734 2.064669,-0.54507 0.576738,-0.18429 1.524711,-0.57299 2.083833,-0.79548 0.722462,-0.40962 1.397578,-0.73547 2.009244,-1.31663 0.973401,-0.92486 1.838375,-2.38056 2.374328,-3.59977 0.208358,-0.47398 0.361171,-0.97048 0.541756,-1.45572 0.431247,-1.31226 0.810784,-2.64546 1.043137,-4.00887 0.151851,-0.89104 0.247018,-1.800386 0.356078,-2.697951 0,0 -12.454367,-6.258034 -12.454367,-6.258034 v 0 c 0.130616,0.601357 0.257749,1.1236 0.328977,1.741244 0.193684,1.679501 0.06471,3.366378 -0.461158,4.978144 -0.420313,0.980537 -0.60087,1.544197 -1.212005,2.420267 -0.897817,1.28703 -2.197501,2.15156 -3.640328,2.71836 -0.336192,0.11908 -0.66804,0.25122 -1.008578,0.35723 -1.658397,0.51627 -3.370264,0.83119 -5.099732,0.97427 -0.825007,0.0486 -1.62282,0.10332 -2.446095,-0.003 -0.216981,-0.0281 -0.435311,-0.0565 -0.646354,-0.11423 -0.208553,-0.057 -0.404699,-0.15233 -0.607049,-0.22849 3.742092,2.18852 7.484183,4.37704 11.226274,6.56555 -0.273512,-0.12735 -0.565718,-0.22051 -0.820535,-0.38205 -0.677392,-0.42943 -1.400747,-1.18051 -1.920109,-1.75243 -1.531561,-1.68655 -2.911751,-3.51135 -4.268284,-5.33802 -0.551973,-0.80695 -1.131892,-1.59547 -1.655919,-2.42083 -1.586536,-2.49886 -1.367279,-2.344307 -2.620332,-4.891131 -0.360684,-0.733089 -0.751631,-1.451194 -1.104567,-2.188044 -0.949743,-1.98285 -1.053555,-2.343116 -1.859231,-4.368997 -0.805425,-2.184726 -0.944252,-2.449645 -1.61095,-4.725618 -0.945782,-3.22871 -1.564931,-6.539821 -2.412205,-9.794162 -0.178674,-0.645497 -0.226346,-1.342612 -0.536021,-1.93649 -0.318922,-0.611611 -0.880046,-1.062492 -1.309318,-1.602403 -2.248037,-2.827431 -4.310457,-5.798316 -6.027478,-8.981763 -2.51962,-4.964138 0.141488,0.376861 -2.029637,-4.260296 -0.439331,-0.938337 -1.391463,-2.763737 -1.856663,-3.689903 -0.304735,-0.606694 -0.588909,-1.223773 -0.903315,-1.825512 -0.311452,-0.596085 -0.649202,-1.178057 -0.973802,-1.767085 -0.487203,-0.856887 -1.410807,-2.474711 -1.89803,-3.356609 -0.244846,-0.443184 -0.458809,-0.9039 -0.72256,-1.3361 -0.26541,-0.434917 -0.857573,-1.149289 -1.128277,-1.634888 -0.06964,-0.124928 -0.10007,-0.267981 -0.150106,-0.401971 z" />
  </g>
</svg>
