<?xml version="1.0" encoding="UTF-8" standalone="no"?>
<!-- Created with Inkscape (http://www.inkscape.org/) -->

<svg
   width="120"
   height="120"
   viewBox="0 0 120 120"
   version="1.1"
   id="svg1"
   inkscape:version="1.3.2 (091e20ef0f, 2023-11-25)"
   sodipodi:docname="wolf.svg"
   xmlns:inkscape="http://www.inkscape.org/namespaces/inkscape"
   xmlns:sodipodi="http://sodipodi.sourceforge.net/DTD/sodipodi-0.dtd"
   xmlns="http://www.w3.org/2000/svg"
   xmlns:svg="http://www.w3.org/2000/svg">
  <sodipodi:namedview
     id="namedview1"
     pagecolor="#ffffff"
     bordercolor="#000000"
     borderopacity="0.25"
     inkscape:showpageshadow="2"
     inkscape:pageopacity="0.0"
     inkscape:pagecheckerboard="0"
     inkscape:deskcolor="#d1d1d1"
     inkscape:document-units="px"
     inkscape:zoom="6.7083333"
     inkscape:cx="60"
     inkscape:cy="40.024845"
     inkscape:window-width="1920"
     inkscape:window-height="1011"
     inkscape:window-x="0"
     inkscape:window-y="0"
     inkscape:window-maximized="1"
     inkscape:current-layer="layer1" />
  <defs
     id="defs1" />
  <g
     inkscape:label="Layer 1"
     inkscape:groupmode="layer"
     id="layer1">
    <path
       style="fill:#4d4d4d;stroke-width:1.00157"
       id="path1"
       d="m 12.018532,23.8067 c 0.121135,0.204644 0.232232,0.415574 0.363407,0.613933 0.255706,0.386673 0.544055,0.751235 0.796498,1.140046 0.330449,0.508955 0.632394,1.035867 0.951408,1.552066 1.510222,2.443702 2.989259,4.905208 4.494664,7.352053 2.06996,3.662425 1.906707,3.206928 3.683046,7.013654 0.579949,1.24284 1.160165,2.486605 1.682745,3.754636 0.481417,1.168147 0.896161,2.362759 1.327731,3.550226 0.78077,2.14829 1.528,4.364738 2.268086,6.528653 1.199839,2.563174 2.046261,5.265423 3.069547,7.897949 0.299212,0.769757 0.631762,1.526204 0.935995,2.293989 0.954341,2.40845 0.90875,2.360211 1.769281,4.823858 0.765055,2.318167 1.355377,4.691491 1.904084,7.06881 0.506824,2.195859 0.350717,1.79877 0.881877,3.919976 0.148492,0.593006 0.316699,1.1809 0.475048,1.77135 0.492734,1.46334 0.819022,2.977737 1.318396,4.438896 0.373889,1.093993 0.509979,1.215869 0.815056,2.267925 0.06863,0.236656 0.107318,0.480983 0.160976,0.721475 -2.366728,4.626019 -0.920171,1.494709 13.013596,6.257155 0.44855,0.153311 -0.0687,-0.945871 -0.12389,-1.416674 -0.211475,-1.804036 -0.301227,-1.753284 -0.561404,-3.702689 -0.101891,-0.763427 -0.169921,-1.530993 -0.254882,-2.29649 -0.290347,-3.544255 -0.436032,-7.104168 -0.238321,-10.657952 0.101884,-1.831319 0.297493,-3.492187 0.488064,-5.31331 0.439304,-3.131448 1.234945,-6.202618 2.253741,-9.19256 0.447757,-1.275066 0.108953,-0.371417 0.575262,-1.486547 0.07986,-0.190978 0.183214,-0.374869 0.232033,-0.576034 0.06382,-0.262961 0.06307,-0.537593 0.103169,-0.8052 0.103518,-0.690839 0.218814,-1.253325 0.35078,-1.943121 0.144189,-1.123115 0.405848,-2.225785 0.753282,-3.302504 0.08904,-0.275954 0.164653,-0.558608 0.289598,-0.820273 0.284591,-0.596003 0.208742,-0.526716 0.578418,-0.315867 -1.51791,5.243713 0.158222,0.563493 -11.896899,-5.747295 -0.414466,-0.216971 0.638125,0.686122 0.92347,1.056846 0.329249,0.427764 0.626348,0.87988 0.917227,1.334606 0.908474,1.420199 1.108843,1.88915 1.913131,3.425133 1.248736,2.789534 2.30141,5.673874 3.16626,8.605496 0.509725,1.727839 0.705503,2.586908 1.13714,4.315833 1.031677,3.691301 2.027716,7.394848 3.248001,11.02934 0.84676,2.417345 1.921831,4.751038 2.576654,7.232648 0.195375,1.031966 0.777157,1.918315 1.205788,2.859528 0.118565,0.200972 0.234721,0.403384 0.355693,0.602916 0.175183,0.288944 0.367767,0.567539 0.532728,0.862438 0.616461,1.102036 1.038196,2.280323 1.468013,3.462112 0.0838,0.241637 0.194191,0.475636 0.251402,0.72491 0.03429,0.149382 0.0136,0.30623 0.0204,0.459345 4.324234,2.178279 8.451771,4.801319 12.972702,6.534835 0.48074,0.18434 0.05493,-1.02927 0.04315,-1.54401 -0.01494,-0.652805 -0.08217,-1.303369 -0.123248,-1.955055 -0.0028,-0.808269 -0.0057,-1.616538 -0.0085,-2.424807 0.121846,-1.961479 0.211615,-3.92486 0.333754,-5.886318 0.07771,-1.247992 0.116133,-2.49972 0.251346,-3.742796 0.138109,-1.269697 0.367084,-2.52794 0.567935,-3.789235 0.681207,-4.277794 0.549342,-3.395988 1.444533,-7.555704 0.596774,-3.944186 1.584759,-7.81378 2.544777,-11.680698 0.367559,-1.480515 0.667752,-2.980206 1.117854,-4.437749 1.045137,-3.38441 1.879742,-4.92339 3.345779,-8.099206 1.713743,-3.214053 1.790477,-3.682826 3.912613,-6.485398 0.583084,-0.770042 1.228893,-1.491189 1.872703,-2.211231 0.50725,-0.567312 1.064962,-1.087794 1.578894,-1.64906 4.20325,-4.590373 -1.481466,1.435879 2.502168,-2.760528 1.429164,-1.370235 3.122336,-2.346907 4.937924,-3.103139 0.39552,-0.164743 0.790355,-0.333317 1.196795,-0.468901 0.40417,-0.134826 0.8212,-0.2275 1.2318,-0.34125 1.35004,-0.243751 2.8014,-0.411155 4.12627,0.06892 0.70871,0.256804 0.79242,0.402555 1.36033,0.864879 -26.531887,-14.578562 -12.745963,-8.72727 -10.260284,-5.488426 0.396431,0.516549 0.657703,1.095205 0.924427,1.683814 0.499192,1.043965 1.009859,2.101448 1.267,3.237306 0.181021,0.799619 0.157641,1.038801 0.19146,1.831065 -0.0177,0.991883 -0.08276,2.017813 -0.503529,2.934744 -0.08756,0.190801 -0.203083,0.367481 -0.304624,0.551222 -0.624094,1.101339 -1.480601,2.012721 -2.410816,2.855996 -0.08052,0.09155 -0.173892,0.173238 -0.241565,0.274658 -2.776329,4.160832 8.121731,5.847969 12.318511,8.569649 0,0 -11.449858,-9.237575 -11.449858,-9.237575 v 0 c 4.031588,2.628934 8.096458,5.207534 12.094788,7.886802 0.0631,0.0423 -0.15356,0.116668 -0.2159,0.07322 -0.0585,-0.04077 0.01,-0.142252 0.0148,-0.213378 0.11476,-0.351482 0.12745,-0.43799 0.32278,-0.791667 0.47065,-0.852188 1.14599,-1.571847 1.67856,-2.383065 0.24924,-0.375972 0.63826,-0.922862 0.81277,-1.344735 0.40268,-0.973433 0.28663,-2.075307 0.12031,-3.081566 -0.16992,-1.253941 -0.10724,-0.712473 -0.23795,-2.006711 -0.0628,-0.621952 -0.1058,-1.259464 -0.23499,-1.873459 -0.0841,-0.399728 -0.29541,-1.023839 -0.42246,-1.418538 -0.2878,-0.666026 -0.55437,-1.358497 -0.90297,-1.995831 -2.58086,-4.718458 -9.75516,-6.601401 -13.362302,-8.770511 -0.25847,-0.08685 -0.509746,-0.199136 -0.775411,-0.260555 -1.603219,-0.370651 -3.222956,0.16233 -4.721918,0.682613 -0.824124,0.303381 -1.738628,0.610888 -2.519307,1.018663 -1.229288,0.642099 -2.493591,1.657164 -3.455585,2.647509 -0.393621,0.405221 -0.740478,0.853382 -1.110717,1.280073 -0.905396,1.253024 -1.399066,1.794703 -2.018583,3.249403 -0.299434,0.703108 -0.486356,1.448995 -0.734808,2.171693 -1.154325,3.357698 -2.399157,6.683669 -3.888801,9.91015 -0.503028,1.356331 -1.008343,2.711816 -1.509082,4.068994 -0.52277,1.416887 -1.012732,2.846145 -1.56144,4.253191 -0.544202,1.39549 -1.200061,2.74677 -1.71663,4.152723 -0.47039,1.280265 -0.876891,2.584633 -1.241661,3.898896 -0.206485,0.743962 -1.592934,6.845408 -1.769345,7.616738 -0.749434,4.471611 -0.460914,3.098577 -1.444986,7.558863 -0.269527,1.221624 -0.513413,2.449819 -0.830583,3.659949 -0.295837,1.128731 -0.676337,2.233574 -1.007353,3.352494 -0.8663,2.928317 -0.737154,2.512945 -1.47992,5.279785 -0.46212,1.238919 -0.71903,2.272038 -1.520903,3.320234 -0.124511,0.162759 -0.682253,0.239591 -0.507612,0.3468 4.057024,2.490536 8.30349,4.658424 12.455235,6.987636 -0.167053,-0.15385 -0.373627,-0.27363 -0.501157,-0.46154 -0.159442,-0.23493 -0.227748,-0.52018 -0.341622,-0.780275 -0.316276,-0.712987 -0.445024,-0.993403 -0.750701,-1.724101 -0.204913,-0.489826 -0.523021,-1.249496 -0.676818,-1.766555 -0.06933,-0.23309 -0.101584,-0.475762 -0.161521,-0.711443 -0.0426,-0.167519 -0.0973,-0.331727 -0.145954,-0.49759 C 72.506627,94.690853 72.4062,94.443574 72.214551,94.098147 71.79869,93.348602 71.280402,92.656513 70.855766,91.91199 69.372009,89.458396 68.071702,86.894887 67.049726,84.213129 66.978999,84.035641 65.763951,80.987654 65.716892,80.864762 64.719017,78.25885 63.833814,75.60924 63.044915,72.932977 62.572016,71.401589 62.144009,70.039013 61.697676,68.497556 61.26927,67.018007 60.896658,65.52261 60.463419,64.044468 c -0.202312,-0.690255 -0.426507,-1.373925 -0.645391,-2.059106 -0.207043,-0.648119 -0.42158,-1.29382 -0.632369,-1.94073 -0.192746,-0.581409 -0.372079,-1.167438 -0.578236,-1.744228 -1.008683,-2.822118 -0.140216,-0.197309 -1.061627,-2.681221 -0.115155,-0.310429 -0.03552,-0.756827 -0.308523,-0.944169 -12.38718,-8.500419 -8.75773,-10.976223 -13.420619,-7.246162 -0.04359,0.208019 -0.111383,0.412407 -0.130785,0.624058 -0.0505,0.550845 0.09481,1.110642 -0.05008,1.658706 -0.11137,1.104608 -0.344578,2.189687 -0.77887,3.215455 -0.268872,0.77886 -0.33947,1.022807 -0.647049,1.767378 -0.0997,0.241346 -0.242746,0.466216 -0.315769,0.716927 -0.063,0.216311 -0.06353,0.446175 -0.08823,0.670117 -0.247432,2.243332 0.133111,-0.816198 -0.196125,1.753726 -0.03272,0.371537 -0.07606,0.742292 -0.09815,1.114612 -0.185462,3.125398 0.170715,6.255953 0.0041,9.382682 -0.05162,0.895097 -0.107633,1.789952 -0.154854,2.685292 -0.04862,0.921816 -0.07695,1.844697 -0.132658,2.76611 -0.207378,3.429969 -0.604454,6.848795 -0.669029,10.287197 -0.141141,1.819336 -0.09776,2.071283 -0.448929,3.768772 -0.08472,0.409535 -0.164923,0.823991 -0.314278,1.214618 -0.07858,0.205523 -0.551393,0.441532 -0.361342,0.552417 11.279587,6.581066 17.628729,7.332579 11.988521,6.584047 -0.203824,-0.288743 -0.428586,-0.56379 -0.611472,-0.86623 C 50.445392,94.719127 49.908348,93.553001 49.610964,92.930553 48.882765,91.406376 48.164462,89.875751 47.617667,88.274139 46.902913,86.29071 46.189501,84.306662 45.552831,82.296308 44.789196,79.885048 44.10498,77.448702 43.370366,75.028653 42.591576,72.573977 41.82215,70.115112 40.691671,67.792023 39.651789,65.655107 38.891872,64.660995 37.806089,62.493569 37.297707,61.478742 36.863917,60.428232 36.392831,59.395564 34.181837,54.287146 35.718502,57.894743 33.522312,52.581649 33.017637,51.360723 32.491693,50.148525 31.9996,48.922474 31.512291,47.708345 31.072121,46.475641 30.584343,45.2617 30.121054,44.108706 29.604315,42.977559 29.146658,41.822318 28.738098,40.791012 28.373021,39.743005 27.986203,38.703348 27.67832,37.847515 27.3858,36.985998 27.062554,36.135849 26.177362,33.807757 26.314376,34.585177 25.724596,32.4211 25.61624,32.023509 25.50361,31.624471 25.44817,31.216125 c -0.04007,-0.29511 0.0021,-0.667677 0.03253,-0.983602 z" />
  </g>
</svg>
